<?xml version="1.0" encoding="UTF-8" standalone="no"?>
<!DOCTYPE svg PUBLIC "-//W3C//DTD SVG 1.1//EN" "http://www.w3.org/Graphics/SVG/1.1/DTD/svg11.dtd">
<svg width="100%" height="100%" viewBox="0 0 2099 808" version="1.1" xmlns="http://www.w3.org/2000/svg" xmlns:xlink="http://www.w3.org/1999/xlink" xml:space="preserve" xmlns:serif="http://www.serif.com/" style="fill-rule:evenodd;clip-rule:evenodd;stroke-linecap:round;stroke-linejoin:round;stroke-miterlimit:1.5;">
    <rect id="Artboard1" x="0" y="0" width="2098.64" height="807.888" style="fill:none;"/>
    <clipPath id="_clip1">
        <rect x="0" y="0" width="2098.64" height="807.888"/>
    </clipPath>
    <g clip-path="url(#_clip1)">
        <g>
            <clipPath id="_clip2">
                <path d="M301.449,585.036c-182.513,-63.709 -295.486,-133.241 -296.12,-180.966c0.634,-47.724 113.607,-117.256 296.12,-180.965l-88.416,-0.038l-0.002,-217.448l354.32,0c225.707,0 235.672,68.948 248.953,94.889c158.618,-23.563 330.736,-37.424 506.988,-35.535c350.622,3.757 727.457,181.185 766.385,318.296c0,-0 22.302,0.583 22.902,21.205c-0.6,20.623 -22.902,20.398 -22.902,20.398c-23.239,81.85 -166.896,178.068 -353.51,243.131l-0,97.825c-0,8.837 -7.164,16 -16,16l-12.496,0l-17.517,20.679l-285,0l-18.762,-20.679l-27.971,0c-1.741,0 -3.435,-0.568 -4.824,-1.618l-48.813,-36.901c-169.787,0.765 -335.419,-12.938 -488.48,-35.676c-13.281,25.94 -20.246,94.864 -248.953,94.864l-354.32,0l0.002,-217.43l88.416,-0.031Zm1791.5,-180.966c-0.003,0.144 -0.007,0.287 -0.011,0.43l0.02,-0.026l-0.009,-0.404Zm23.491,0.404c33.385,79.91 0.065,187.82 0.065,187.82c-27.145,-108.769 -0.065,-187.82 -0.065,-187.82Zm-0,-0.807c-0,-0 -27.08,-79.051 0.065,-187.82c-0,-0 33.32,107.909 -0.065,187.82Z"/>
            </clipPath>
            <g clip-path="url(#_clip2)">
                <g opacity="0.05">
                    <path d="M-362.32,628.016l1104.5,-1081.66" style="fill:none;stroke:rgb(235,235,235);stroke-width:18px;"/>
                    <path d="M-316.445,655.191l1104.5,-1081.66" style="fill:none;stroke:rgb(235,235,235);stroke-width:18px;"/>
                    <path d="M-266.201,680.313l1104.5,-1081.66" style="fill:none;stroke:rgb(235,235,235);stroke-width:18px;"/>
                    <path d="M-200.119,689.051l1104.5,-1081.66" style="fill:none;stroke:rgb(235,235,235);stroke-width:18px;"/>
                    <path d="M-140.044,696.697l1104.5,-1081.66" style="fill:none;stroke:rgb(235,235,235);stroke-width:18px;"/>
                    <path d="M-77.239,706.528l1104.5,-1081.66" style="fill:none;stroke:rgb(235,235,235);stroke-width:18px;"/>
                    <path d="M-39.009,736.211l1104.5,-1081.66" style="fill:none;stroke:rgb(235,235,235);stroke-width:18px;"/>
                    <path d="M6.866,763.386l1104.5,-1081.66" style="fill:none;stroke:rgb(235,235,235);stroke-width:18px;"/>
                    <path d="M57.11,788.508l1104.5,-1081.66" style="fill:none;stroke:rgb(235,235,235);stroke-width:18px;"/>
                    <path d="M123.192,797.246l1104.5,-1081.66" style="fill:none;stroke:rgb(235,235,235);stroke-width:18px;"/>
                    <path d="M183.267,804.892l1104.5,-1081.66" style="fill:none;stroke:rgb(235,235,235);stroke-width:18px;"/>
                    <path d="M246.072,814.723l1104.5,-1081.66" style="fill:none;stroke:rgb(235,235,235);stroke-width:18px;"/>
                    <path d="M283.209,845.377l1104.5,-1081.66" style="fill:none;stroke:rgb(235,235,235);stroke-width:18px;"/>
                    <path d="M329.084,872.552l1104.5,-1081.66" style="fill:none;stroke:rgb(235,235,235);stroke-width:18px;"/>
                    <path d="M379.329,897.674l1104.5,-1081.66" style="fill:none;stroke:rgb(235,235,235);stroke-width:18px;"/>
                    <path d="M445.411,906.412l1104.5,-1081.66" style="fill:none;stroke:rgb(235,235,235);stroke-width:18px;"/>
                    <path d="M505.486,914.058l1104.5,-1081.66" style="fill:none;stroke:rgb(235,235,235);stroke-width:18px;"/>
                    <path d="M568.291,923.889l1104.5,-1081.66" style="fill:none;stroke:rgb(235,235,235);stroke-width:18px;"/>
                    <path d="M684.617,879.783l1104.5,-1081.66" style="fill:none;stroke:rgb(235,235,235);stroke-width:18px;"/>
                    <path d="M730.492,906.958l1104.5,-1081.66" style="fill:none;stroke:rgb(235,235,235);stroke-width:18px;"/>
                    <path d="M780.737,932.081l1104.5,-1081.66" style="fill:none;stroke:rgb(235,235,235);stroke-width:18px;"/>
                    <path d="M846.819,940.819l1104.5,-1081.66" style="fill:none;stroke:rgb(235,235,235);stroke-width:18px;"/>
                    <path d="M906.894,948.465l1104.5,-1081.66" style="fill:none;stroke:rgb(235,235,235);stroke-width:18px;"/>
                    <path d="M969.699,958.295l1104.5,-1081.66" style="fill:none;stroke:rgb(235,235,235);stroke-width:18px;"/>
                    <path d="M1013.94,983.003l1104.5,-1081.66" style="fill:none;stroke:rgb(235,235,235);stroke-width:18px;"/>
                    <path d="M1059.81,1010.18l1104.5,-1081.66" style="fill:none;stroke:rgb(235,235,235);stroke-width:18px;"/>
                    <path d="M1110.06,1035.3l1104.5,-1081.66" style="fill:none;stroke:rgb(235,235,235);stroke-width:18px;"/>
                    <path d="M1176.14,1044.04l1104.5,-1081.66" style="fill:none;stroke:rgb(235,235,235);stroke-width:18px;"/>
                    <path d="M1236.21,1051.68l1104.5,-1081.66" style="fill:none;stroke:rgb(235,235,235);stroke-width:18px;"/>
                    <path d="M1299.02,1061.51l1104.5,-1081.66" style="fill:none;stroke:rgb(235,235,235);stroke-width:18px;"/>
                    <path d="M1302.84,1122.81l1104.5,-1081.66" style="fill:none;stroke:rgb(235,235,235);stroke-width:18px;"/>
                    <path d="M1348.71,1149.99l1104.5,-1081.66" style="fill:none;stroke:rgb(235,235,235);stroke-width:18px;"/>
                    <path d="M1398.96,1175.11l1104.5,-1081.66" style="fill:none;stroke:rgb(235,235,235);stroke-width:18px;"/>
                    <path d="M1465.04,1183.85l1104.5,-1081.66" style="fill:none;stroke:rgb(235,235,235);stroke-width:18px;"/>
                    <path d="M1525.12,1191.49l1104.5,-1081.66" style="fill:none;stroke:rgb(235,235,235);stroke-width:18px;"/>
                    <path d="M1587.92,1201.32l1104.5,-1081.66" style="fill:none;stroke:rgb(235,235,235);stroke-width:18px;"/>
                </g>
            </g>
        </g>
        <g id="Logo">
            <g id="Fill" opacity="0.05">
                <path d="M5.329,404.07c1.497,-112.573 628.06,-346.49 1317.96,-339.097c368.651,3.95 766.279,199.891 769.66,339.097c-3.381,139.207 -401.009,335.148 -769.66,339.098c-689.903,7.393 -1316.47,-226.524 -1317.96,-339.098Z" style="fill:white;"/>
                <path d="M301.449,585.036c138.02,48.178 315.808,93.027 514.855,122.597c-13.281,25.94 -20.246,94.864 -248.953,94.864l-354.32,0l0.002,-217.43l88.416,-0.031Z" style="fill:white;"/>
                <path d="M301.449,223.105l-88.416,-0.038l-0.002,-217.448l354.32,0c225.707,0 235.672,68.948 248.953,94.889c-199.047,29.57 -376.835,74.418 -514.855,122.597Z" style="fill:white;"/>
                <path d="M2089.68,383.269c0,-0 22.302,0.583 22.902,21.205c-0.6,20.623 -22.902,20.398 -22.902,20.398c1.96,-6.902 3.063,-13.702 3.264,-20.372c0.013,-0.017 0.02,-0.026 0.02,-0.026c-0.002,-0.134 -0.005,-0.269 -0.009,-0.404c-0.165,-6.807 -1.273,-13.751 -3.275,-20.801Z" style="fill:white;"/>
                <path d="M1304.78,743.309c6.164,-0.028 12.334,-0.075 18.508,-0.141c141.313,-1.514 286.884,-31.239 412.875,-75.165l-0,97.825c-0,8.837 -7.164,16 -16,16l-361.746,0c-1.741,0 -3.435,-0.568 -4.824,-1.618l-48.813,-36.901Z" style="fill:white;"/>
                <path d="M1707.67,781.828l-17.517,20.679l-285,0l-18.762,-20.679l321.279,0Z" style="fill:white;"/>
            </g>
            <g id="Carriage-3" serif:id="Carriage 3">
                <path d="M1736.17,668.003l-0,97.825c-0,8.837 -7.164,16 -16,16c-68.17,0 -332.246,0 -361.746,0c-1.741,0 -3.435,-0.568 -4.824,-1.618c-9.671,-7.311 -48.813,-36.901 -48.813,-36.901" style="fill:none;stroke:white;stroke-width:10px;"/>
                <path d="M1386.39,781.828l18.762,20.679l285,0l17.517,-20.679" style="fill:none;stroke:white;stroke-width:10px;"/>
                <path d="M1736.17,756.68l-408.691,3.784" style="fill:none;stroke:white;stroke-width:10px;stroke-dasharray:20,30,0,0,0,0;stroke-dashoffset:-15;"/>
                <path d="M1679.12,734.847l-0,-47.403" style="fill:none;stroke:white;stroke-width:10px;"/>
                <path d="M1736.17,734.847l-114.096,-0l-0,-32.521" style="fill:none;stroke:white;stroke-width:10px;"/>
            </g>
            <g id="Fins">
                <path d="M301.449,585.036l-88.416,0.031l-0.002,217.43l354.32,0c228.707,0 235.672,-68.924 248.953,-94.864" style="fill:none;stroke:white;stroke-width:10px;"/>
                <path d="M301.449,223.105l-88.416,-0.038l-0.002,-217.448l354.32,0c225.707,0 235.672,68.948 248.953,94.889" style="fill:none;stroke:white;stroke-width:10px;"/>
            </g>
            <g id="Primary-shape" serif:id="Primary shape">
                <g>
                    <path d="M2092.96,404.474c-24.045,0 -290.615,-54.029 -741.828,-68.605c-346.677,-11.199 -1171.4,33.497 -1345.81,68.605" style="fill:none;stroke:white;stroke-width:10px;"/>
                    <path d="M2092.96,404.474c0,0 -189.085,-144.346 -734.43,-170.024c-405.786,-19.107 -1284.62,115.723 -1353.2,170.024" style="fill:none;stroke:white;stroke-width:10px;"/>
                    <path d="M2092.96,404.474c0,0 -183.419,-235.951 -736.872,-259.622c-316.918,-13.555 -1315.68,175.492 -1350.76,259.622" style="fill:none;stroke:white;stroke-width:10px;"/>
                    <path d="M5.326,404.474c-0,-112.417 627.237,-346.903 1317.97,-339.501c369.008,3.954 767.048,200.27 769.669,339.501" style="fill:none;stroke:white;stroke-width:10px;"/>
                </g>
                <g>
                    <path d="M2092.96,404.474c-24.045,0 -290.615,54.029 -741.828,68.605c-346.677,11.199 -1171.4,-33.497 -1345.81,-68.605" style="fill:none;stroke:white;stroke-width:10px;"/>
                    <path d="M2092.96,404.474c0,0 -189.085,144.347 -734.43,170.025c-405.786,19.106 -1284.62,-115.723 -1353.2,-170.025" style="fill:none;stroke:white;stroke-width:10px;"/>
                    <path d="M2092.96,404.474c0,0 -183.419,235.951 -736.872,259.623c-316.918,13.554 -1315.68,-175.492 -1350.76,-259.623" style="fill:none;stroke:white;stroke-width:10px;"/>
                    <path d="M5.326,403.667c-0,112.417 627.237,346.903 1317.97,339.501c369.008,-3.954 767.048,-200.27 769.669,-339.501" style="fill:none;stroke:white;stroke-width:10px;"/>
                </g>
            </g>
            <g id="Vertical-dashes" serif:id="Vertical dashes">
                <g>
                    <path d="M306.449,5.619l-0,796.878" style="fill:none;stroke:white;stroke-width:10px;stroke-dasharray:30,40,0,0,0,0;stroke-dashoffset:72;"/>
                    <path d="M284.944,5.619l0.705,796.878" style="fill:none;stroke:white;stroke-width:10px;stroke-dasharray:30,40,0,0,0,0;stroke-dashoffset:72;"/>
                </g>
                <g>
                    <path d="M549.598,151.573l0.035,504.717" style="fill:none;stroke:white;stroke-width:10px;stroke-dasharray:30,40,0,0,0,0;stroke-dashoffset:6;"/>
                    <path d="M530.316,156.206l-0,495.729" style="fill:none;stroke:white;stroke-width:10px;stroke-dasharray:30,40,0,0,0,0;stroke-dashoffset:11;"/>
                </g>
                <g>
                    <path d="M814.115,97.305l0,614.587" style="fill:none;stroke:white;stroke-width:10px;stroke-dasharray:30,30,0,0,0,0;stroke-dashoffset:38;"/>
                    <path d="M794.388,103.839l0.045,600.574" style="fill:none;stroke:white;stroke-width:10px;stroke-dasharray:30,30,0,0,0,0;stroke-dashoffset:45;"/>
                </g>
                <g>
                    <path d="M1107.2,70.295l0.037,667.562" style="fill:none;stroke:white;stroke-width:10px;stroke-dasharray:30,40,0,0,0,0;stroke-dashoffset:-4;"/>
                    <path d="M1086.55,71.581l-0.018,666.276" style="fill:none;stroke:white;stroke-width:10px;stroke-dasharray:30,40,0,0,0,0;stroke-dashoffset:-3;"/>
                </g>
                <g>
                    <path d="M1404.49,68.824l0.04,670.493" style="fill:none;stroke:white;stroke-width:10px;stroke-dasharray:30,40,0,0,0,0;stroke-dashoffset:-5;"/>
                    <path d="M1383.33,69.657l0,671.195" style="fill:none;stroke:white;stroke-width:10px;stroke-dasharray:30,40,0,0,0,0;stroke-dashoffset:-4;"/>
                </g>
                <g>
                    <path d="M1696.35,126.94l-0.012,553.915" style="fill:none;stroke:white;stroke-width:10px;stroke-dasharray:30,40,0,0,0,0;stroke-dashoffset:-17;"/>
                    <path d="M1675.09,120.441l0.041,567.085" style="fill:none;stroke:white;stroke-width:10px;stroke-dasharray:30,40,0,0,0,0;stroke-dashoffset:-23;"/>
                </g>
                <g>
                    <path d="M1948.73,238.852l0.008,330.536" style="fill:none;stroke:white;stroke-width:10px;stroke-dasharray:30,40,0,0,0,0;stroke-dashoffset:-46;"/>
                    <path d="M1928.08,226.479l-0.043,355.043" style="fill:none;stroke:white;stroke-width:10px;stroke-dasharray:30,40,0,0,0,0;stroke-dashoffset:12;"/>
                </g>
            </g>
            <g id="Horizontal-dashes" serif:id="Horizontal dashes">
                <path d="M24.659,404.474l2068.3,0" style="fill:none;stroke:white;stroke-width:10px;stroke-dasharray:30,40,0,0,0,0;stroke-dashoffset:23;"/>
            </g>
        </g>
    </g>
</svg>
