<?xml version="1.0" encoding="UTF-8" standalone="no"?>
<!DOCTYPE svg PUBLIC "-//W3C//DTD SVG 1.1//EN" "http://www.w3.org/Graphics/SVG/1.1/DTD/svg11.dtd">
<svg width="100%" height="100%" viewBox="0 0 64 32" version="1.1" xmlns="http://www.w3.org/2000/svg" xmlns:xlink="http://www.w3.org/1999/xlink" xml:space="preserve" xmlns:serif="http://www.serif.com/" style="fill-rule:evenodd;clip-rule:evenodd;stroke-linecap:round;stroke-miterlimit:1.5;">
    <rect id="Artboard1" x="0" y="0" width="64" height="32" style="fill:none;"/>
    <clipPath id="_clip1">
        <rect x="0" y="0" width="64" height="32"/>
    </clipPath>
    <g clip-path="url(#_clip1)">
        <path d="M-32,32c0,0 11.254,-11.508 20.414,-20.875c3.035,-3.104 7.201,-4.841 11.541,-4.814c4.341,0.028 8.484,1.818 11.479,4.96c2.919,3.062 6.059,6.356 8.985,9.425c3.02,3.167 7.205,4.96 11.581,4.96c4.376,-0 8.561,-1.793 11.581,-4.96c2.926,-3.069 6.066,-6.363 8.985,-9.425c2.995,-3.142 7.138,-4.932 11.479,-4.96c4.34,-0.027 8.506,1.71 11.541,4.814c9.16,9.367 20.414,20.875 20.414,20.875" style="fill:none;stroke:rgb(241,241,241);stroke-width:12px;"/>
    </g>
</svg>
