<?xml version="1.0" encoding="UTF-8" standalone="no"?>
<!DOCTYPE svg PUBLIC "-//W3C//DTD SVG 1.1//EN" "http://www.w3.org/Graphics/SVG/1.1/DTD/svg11.dtd">
<svg width="100%" height="100%" viewBox="0 0 36 36" version="1.1" xmlns="http://www.w3.org/2000/svg" xmlns:xlink="http://www.w3.org/1999/xlink" xml:space="preserve" xmlns:serif="http://www.serif.com/" style="fill-rule:evenodd;clip-rule:evenodd;stroke-linejoin:round;stroke-miterlimit:2;">
    <g transform="matrix(0.878157,0,0,0.878157,4.48099,4.50364)">
        <g transform="matrix(0.853831,0,0,0.853831,0.146169,0)">
            <path d="M31,32C31,34.209 29.209,36 27,36L5,36C2.791,36 1,34.209 1,32L1,4C1,1.791 2.791,0 5,0L27,0C29.209,0 31,1.791 31,4L31,32Z" style="fill:rgb(204,214,221);fill-rule:nonzero;"/>
        </g>
        <g transform="matrix(0.853831,0,0,0.853831,0.146169,0)">
            <path d="M27,24C27,24.553 26.553,25 26,25L6,25C5.448,25 5,24.553 5,24C5,23.447 5.448,23 6,23L26,23C26.553,23 27,23.447 27,24ZM11,28C11,28.553 10.552,29 10,29L6,29C5.448,29 5,28.553 5,28C5,27.447 5.448,27 6,27L10,27C10.552,27 11,27.447 11,28ZM27,8C27,8.552 26.553,9 26,9L6,9C5.448,9 5,8.552 5,8C5,7.448 5.448,7 6,7L26,7C26.553,7 27,7.448 27,8ZM27,12C27,12.553 26.553,13 26,13L6,13C5.448,13 5,12.553 5,12C5,11.447 5.448,11 6,11L26,11C26.553,11 27,11.447 27,12ZM27,16C27,16.553 26.553,17 26,17L6,17C5.448,17 5,16.553 5,16C5,15.447 5.448,15 6,15L26,15C26.553,15 27,15.447 27,16ZM27,20C27,20.553 26.553,21 26,21L6,21C5.448,21 5,20.553 5,20C5,19.447 5.448,19 6,19L26,19C26.553,19 27,19.447 27,20Z" style="fill:rgb(153,170,181);fill-rule:nonzero;"/>
        </g>
        <g transform="matrix(0.853831,0,0,0.853831,0.146169,0)">
            <path d="M31,6.272C30.173,5.737 29.163,5.693 28.479,6.249L27.687,6.895L26.203,8.106L26.103,8.186L23.727,10.124L11.849,19.81C11.412,20.167 11.056,21.029 10.676,21.884C10.298,22.734 9.707,24.736 9.233,26.275C9.085,26.525 8.168,28.121 8.682,28.728C9.202,29.343 11.008,28.738 11.25,28.652C12.876,28.478 14.981,28.279 15.898,28.072C16.822,27.861 17.752,27.677 18.189,27.32C18.197,27.314 18.199,27.302 18.206,27.297L30.064,17.631L30.856,16.985L31,16.867L31,6.272Z" style="fill:rgb(102,117,127);fill-rule:nonzero;"/>
        </g>
        <g transform="matrix(0.853831,0,0,0.853831,0.146169,0)">
            <path d="M18.145,22.526C18.145,22.526 16.871,20.645 16.028,19.973C15.356,19.13 13.479,17.857 13.479,17.857C13.031,17.411 12.288,17.377 11.85,17.814C11.413,18.252 11.057,19.18 10.677,20.105C10.205,21.251 9.401,24.259 8.909,25.857C8.826,26.129 9.426,25.407 9.412,25.647C9.402,25.834 9.439,26.041 9.486,26.228L9.34,26.387L9.548,26.454C9.573,26.536 9.598,26.608 9.616,26.664L9.775,26.518C9.962,26.565 10.169,26.602 10.355,26.592C10.595,26.578 9.872,27.179 10.145,27.095C11.743,26.602 14.752,25.799 15.897,25.327C16.821,24.946 17.751,24.591 18.188,24.153C18.627,23.718 18.594,22.975 18.145,22.526Z" style="fill:rgb(217,158,130);fill-rule:nonzero;"/>
        </g>
        <g transform="matrix(0.853831,0,0,0.853831,0.146169,0)">
            <path d="M25.312,4.351C24.436,5.226 24.436,6.644 25.312,7.519L28.479,10.687C29.355,11.561 30.773,11.561 31.647,10.687L34.816,7.519C35.69,6.644 35.69,5.226 34.816,4.351L31.647,1.183C30.773,0.308 29.355,0.308 28.479,1.183L25.312,4.351Z" style="fill:rgb(234,89,110);fill-rule:nonzero;"/>
        </g>
        <g transform="matrix(0.853831,0,0,0.853831,0.146169,0)">
            <path d="M11.849,17.815L15.019,20.985L18.184,24.151L30.065,12.272L23.728,5.936L11.849,17.815Z" style="fill:rgb(255,204,77);fill-rule:nonzero;"/>
        </g>
        <g transform="matrix(0.853831,0,0,0.853831,0.146169,0)">
            <path d="M11.298,26.742C11.298,26.742 9.238,27.875 8.682,27.318C8.125,26.76 9.263,24.707 9.263,24.707C9.263,24.707 11.214,24.743 11.298,26.742Z" style="fill:rgb(41,47,51);fill-rule:nonzero;"/>
        </g>
        <g transform="matrix(0.853831,0,0,0.853831,0.146169,0)">
            <path d="M23.728,5.935L27.688,1.975L34.024,8.312L30.064,12.272L23.728,5.935Z" style="fill:rgb(204,214,221);fill-rule:nonzero;"/>
        </g>
        <g transform="matrix(0.853831,0,0,0.853831,0.146169,0)">
            <path d="M26.103,3.558L26.895,2.766L33.231,9.101L32.439,9.893L26.103,3.558ZM24.52,5.142L25.311,4.351L31.647,10.686L30.855,11.478L24.52,5.142Z" style="fill:rgb(153,170,181);fill-rule:nonzero;"/>
        </g>
    </g>
</svg>
